<svg width="10" height="13" viewBox="0 0 10 13" fill="none" xmlns="http://www.w3.org/2000/svg">
<path d="M8.02941 13H1.91176C0.841177 13 0 12.1588 0 11.0882V1.91176C0 0.841177 0.841177 0 1.91176 0H4.66471C4.97059 0 5.27647 0.152941 5.50588 0.305882L9.63529 4.43529C9.86471 4.66471 9.94118 4.97059 9.94118 5.27647V11.0882C9.94118 12.1588 9.1 13 8.02941 13ZM1.91176 0.764706C1.3 0.764706 0.764706 1.3 0.764706 1.91176V11.0882C0.764706 11.7 1.3 12.2353 1.91176 12.2353H8.02941C8.64118 12.2353 9.17647 11.7 9.17647 11.0882V5.27647C9.17647 5.2 9.1 5.04706 9.1 4.97059L4.97059 0.841177C4.89412 0.764706 4.81765 0.764706 4.66471 0.764706H1.91176Z" fill="#231815"/>
<path d="M5.35295 0.382324V3.44115C5.35295 4.05291 5.88824 4.58821 6.50001 4.58821H9.55883V5.35291H6.50001C5.42942 5.35291 4.58824 4.51174 4.58824 3.44115V0.382324H5.35295Z" fill="#231815"/>
<path d="M7.2647 11.0882H2.67647C2.44705 11.0882 2.29411 10.9353 2.29411 10.7058C2.29411 10.4764 2.44705 10.3235 2.67647 10.3235H7.2647C7.49411 10.3235 7.64705 10.4764 7.64705 10.7058C7.64705 10.9353 7.49411 11.0882 7.2647 11.0882Z" fill="#231815"/>
<path d="M7.2647 9.17645H2.67647C2.44705 9.17645 2.29411 9.02351 2.29411 8.7941C2.29411 8.56468 2.44705 8.41174 2.67647 8.41174H7.2647C7.49411 8.41174 7.64705 8.56468 7.64705 8.7941C7.64705 9.02351 7.49411 9.17645 7.2647 9.17645Z" fill="#231815"/>
<path d="M7.2647 7.26471H2.67647C2.44705 7.26471 2.29411 7.11176 2.29411 6.88235C2.29411 6.65294 2.44705 6.5 2.67647 6.5H7.2647C7.49411 6.5 7.64705 6.65294 7.64705 6.88235C7.64705 7.11176 7.49411 7.26471 7.2647 7.26471Z" fill="#231815"/>
</svg>
