<svg width="15" height="13" viewBox="0 0 15 13" fill="none" xmlns="http://www.w3.org/2000/svg">
<path d="M7.49999 8.27508C7.26749 8.27508 7.11249 8.12008 7.11249 7.88758V5.09758C7.11249 4.86508 7.26749 4.71008 7.49999 4.71008C7.73249 4.71008 7.88749 4.86508 7.88749 5.09758V7.88758C7.88749 8.12008 7.73249 8.27508 7.49999 8.27508Z" fill="#231815"/>
<path d="M7.49999 10.2901C7.42249 10.2901 7.26749 10.2901 7.18999 10.2126C7.11249 10.1351 7.11249 10.0576 7.11249 9.90257C7.11249 9.82507 7.11249 9.67007 7.18999 9.59257C7.34499 9.43757 7.57749 9.43757 7.73249 9.59257C7.80999 9.67007 7.80999 9.74757 7.80999 9.90257C7.80999 9.98007 7.73249 10.1351 7.65499 10.2126C7.73249 10.2901 7.57749 10.2901 7.49999 10.2901Z" fill="#231815"/>
<path d="M12.0725 12.6926H2.9275C2.23 12.6926 1.53249 12.3051 1.22249 11.6851C0.834995 11.0651 0.834995 10.2901 1.22249 9.67005L5.79499 1.68755C6.18249 1.06755 6.80249 0.680054 7.49999 0.680054C8.19749 0.680054 8.895 1.06755 9.205 1.68755L13.7775 9.67005C14.165 10.2901 14.165 11.0651 13.7775 11.6851C13.4675 12.3051 12.8475 12.6926 12.0725 12.6926ZM7.49999 1.53255C7.03499 1.53255 6.6475 1.76505 6.4925 2.15255L1.91999 10.1351C1.68749 10.5226 1.68749 10.9876 1.91999 11.3751C2.15249 11.7626 2.54 11.9951 2.9275 11.9951H12.15C12.615 11.9951 13.0025 11.7626 13.1575 11.3751C13.39 10.9876 13.39 10.5226 13.1575 10.1351L8.58499 2.15255C8.35249 1.76505 7.96499 1.53255 7.49999 1.53255Z" fill="#231815"/>
</svg>
